<svg width="23" height="23" viewBox="0 0 23 23" fill="none" xmlns="http://www.w3.org/2000/svg">
<g clip-path="url(#clip0_1_361)">
<path d="M10.5417 3.83331H3.83335C3.32502 3.83331 2.83751 4.03525 2.47807 4.39469C2.11862 4.75414 1.91669 5.24165 1.91669 5.74998V19.1666C1.91669 19.675 2.11862 20.1625 2.47807 20.5219C2.83751 20.8814 3.32502 21.0833 3.83335 21.0833H17.25C17.7584 21.0833 18.2459 20.8814 18.6053 20.5219C18.9648 20.1625 19.1667 19.675 19.1667 19.1666V12.4583" stroke="#422A3C" stroke-width="2" stroke-linecap="round" stroke-linejoin="round"/>
<path d="M17.7292 2.39585C18.1104 2.0146 18.6275 1.80042 19.1667 1.80042C19.7059 1.80042 20.2229 2.0146 20.6042 2.39585C20.9854 2.7771 21.1996 3.29418 21.1996 3.83335C21.1996 4.37251 20.9854 4.8896 20.6042 5.27085L11.5 14.375L7.66669 15.3333L8.62502 11.5L17.7292 2.39585Z" stroke="#422A3C" stroke-width="2" stroke-linecap="round" stroke-linejoin="round"/>
</g>
<defs>
<clipPath id="clip0_1_361">
<rect width="23" height="23" rx="5" fill="white"/>
</clipPath>
</defs>
</svg>
